<svg id="colour-fill" enable-background="new 0 0 300 300" height="512" viewBox="0 0 300 300" width="512" xmlns="http://www.w3.org/2000/svg"><g><circle cx="176" cy="134" fill="#ffc7c7" r="86"/><g fill="#4c241d"><circle cx="96.181" cy="61.975" r="4.529"/><path d="m214 96c-2.211 0-4-1.791-4-4v-12c0-2.209 1.789-4 4-4s4 1.791 4 4v12c0 2.209-1.789 4-4 4z"/><path d="m214 124c-2.211 0-4-1.791-4-4v-12c0-2.209 1.789-4 4-4s4 1.791 4 4v12c0 2.209-1.789 4-4 4z"/><path d="m206 104h-12c-2.211 0-4-1.791-4-4s1.789-4 4-4h12c2.211 0 4 1.791 4 4s-1.789 4-4 4z"/><path d="m234 104h-12c-2.211 0-4-1.791-4-4s1.789-4 4-4h12c2.211 0 4 1.791 4 4s-1.789 4-4 4z"/><path d="m74 100c-6.617 0-12-5.383-12-12s5.383-12 12-12 12 5.383 12 12-5.383 12-12 12zm0-16c-2.207 0-4 1.795-4 4s1.793 4 4 4 4-1.795 4-4-1.793-4-4-4z"/></g><g><path d="m228.349 200h-152.698c-5.33 0-9.651-4.321-9.651-9.651v-32.699c0-5.33 4.321-9.651 9.651-9.651h152.699c5.33 0 9.651 4.321 9.651 9.651v32.699c-.001 5.33-4.322 9.651-9.652 9.651z" fill="#9dc1e4"/><path d="m228.348 204h-152.696c-7.527 0-13.652-6.123-13.652-13.65v-32.7c0-7.527 6.125-13.65 13.652-13.65h152.695c7.527 0 13.652 6.123 13.652 13.65v32.699c.001 7.528-6.124 13.651-13.651 13.651zm-152.696-52c-3.117 0-5.652 2.535-5.652 5.65v32.699c0 3.115 2.535 5.65 5.652 5.65h152.695c3.117 0 5.652-2.535 5.652-5.65v-32.699c0-3.115-2.535-5.65-5.652-5.65z" fill="#4c241d"/></g><path d="m66 178h-11.648c-9.016 0-16.352-7.336-16.352-16.352v-21.297c0-9.015 7.336-16.351 16.352-16.351h91.648v-12c0-2.209 1.789-4 4-4s4 1.791 4 4v16c0 2.209-1.789 4-4 4h-95.648c-4.605 0-8.352 3.746-8.352 8.352v21.297c0 4.605 3.746 8.352 8.352 8.352h11.648c2.211 0 4 1.791 4 4s-1.789 3.999-4 3.999z" fill="#4c241d"/><g><path d="m78 200.162v37.129c0 5.311 3.815 10.211 9.106 10.67 5.926.514 10.894-4.144 10.894-9.961v-13.838c0-.09.073-.162.162-.162h59.675c.09 0 .162.073.162.162v17.129c0 5.311 3.814 10.21 9.104 10.67 5.928.516 10.897-4.143 10.897-9.961v-17.838c0-.09.073-.162.162-.162h24.297c13.108 0 23.768-10.777 23.376-23.878-.002-.08-.005-.122-.007-.122h-147.666c-.089 0-.162.073-.162.162z" fill="#9dc1e4"/><path d="m167.973 255.998c-.402 0-.809-.018-1.215-.053-7.152-.623-12.758-7.061-12.758-14.654v-13.291h-52v10c0 3.912-1.656 7.674-4.539 10.318s-6.805 3.967-10.699 3.627c-7.157-.621-12.762-7.056-12.762-14.654v-37.129c0-2.209 1.953-4.162 4.164-4.162h147.664c2.148 0 3.914 1.754 4.004 3.9.223 7.465-2.496 14.447-7.656 19.76-5.219 5.379-12.223 8.34-19.715 8.34h-20.461v14c0 3.914-1.656 7.676-4.543 10.322-2.582 2.369-5.984 3.676-9.484 3.676zm-69.809-35.998h59.672c2.211 0 4.164 1.953 4.164 4.162v17.129c0 3.424 2.445 6.424 5.453 6.686 1.727.154 3.348-.402 4.598-1.551 1.258-1.152 1.949-2.723 1.949-4.426v-17.838c0-2.209 1.953-4.162 4.164-4.162h24.297c5.312 0 10.273-2.1 13.973-5.91 2.746-2.828 4.512-6.32 5.148-10.09h-139.582v33.291c0 3.426 2.445 6.424 5.453 6.686 1.656.133 3.344-.404 4.602-1.553 1.254-1.153 1.945-2.723 1.945-4.424v-13.838c0-2.209 1.953-4.162 4.164-4.162z" fill="#4c241d"/></g><g><path d="m154.583 108h-9.167c-4.096 0-7.417-3.32-7.417-7.417v-61.166c0-4.096 3.32-7.417 7.417-7.417h9.167c4.096 0 7.417 3.32 7.417 7.417v61.167c0 4.096-3.32 7.416-7.417 7.416z" fill="#b5a19c"/><path d="m154.582 112h-9.164c-6.297 0-11.418-5.121-11.418-11.416v-61.168c0-6.295 5.121-11.416 11.418-11.416h9.164c6.297 0 11.418 5.121 11.418 11.416v61.168c0 6.295-5.121 11.416-11.418 11.416zm-9.164-76c-1.883 0-3.418 1.533-3.418 3.416v61.168c0 1.883 1.535 3.416 3.418 3.416h9.164c1.883 0 3.418-1.533 3.418-3.416v-61.168c0-1.883-1.535-3.416-3.418-3.416z" fill="#4c241d"/></g><g><path d="m118 216v42c0 5.523-4.477 10-10 10-5.523 0-10-4.477-10-10v-42" fill="#9dc1e4"/><path d="m108 272c-7.719 0-14-6.281-14-14v-42c0-2.209 1.789-4 4-4s4 1.791 4 4v42c0 3.309 2.691 6 6 6s6-2.691 6-6v-42c0-2.209 1.789-4 4-4s4 1.791 4 4v42c0 7.719-6.281 14-14 14z" fill="#4c241d"/></g><path d="m178 240c-2.211 0-4-1.791-4-4v-24c0-2.209 1.789-4 4-4s4 1.791 4 4v24c0 2.209-1.789 4-4 4z" fill="#4c241d"/><g><path d="m212 264c-5.523 0-10-4.477-10-10v-4c0-5.523 4.477-10 10-10 5.523 0 10 4.477 10 10v4c0 5.523-4.477 10-10 10z" fill="#9dc1e4"/><path d="m212 268c-7.719 0-14-6.281-14-14v-4c0-7.719 6.281-14 14-14s14 6.281 14 14v4c0 7.719-6.281 14-14 14zm0-24c-3.309 0-6 2.691-6 6v4c0 3.309 2.691 6 6 6s6-2.691 6-6v-4c0-3.309-2.691-6-6-6z" fill="#4c241d"/></g><path d="m82 180c-1.023 0-2.047-.391-2.828-1.172-1.562-1.562-1.562-4.094 0-5.656l16-16c1.562-1.562 4.094-1.562 5.656 0s1.562 4.094 0 5.656l-16 16c-.781.781-1.805 1.172-2.828 1.172z" fill="#fff"/><path d="m90 188c-1.023 0-2.047-.391-2.828-1.172-1.562-1.562-1.562-4.094 0-5.656l20-20c1.562-1.562 4.094-1.562 5.656 0s1.562 4.094 0 5.656l-20 20c-.781.781-1.805 1.172-2.828 1.172z" fill="#fff"/></g></svg>