<?xml version="1.0" encoding="UTF-8"?>
<svg xmlns="http://www.w3.org/2000/svg" xmlns:xlink="http://www.w3.org/1999/xlink" width="512" height="512" viewBox="0 0 58 55" version="1.1"><!-- Generator: Sketch 51.3 (57544) - http://www.bohemiancoding.com/sketch --><title>087 - Whiteboard</title><desc>Created with Sketch.</desc><defs/><g id="Page-1" stroke="none" stroke-width="1" fill="none" fill-rule="evenodd"><g id="087---Whiteboard" fill-rule="nonzero"><path d="M46,52 L55,52 C56.6568542,52 58,50.6568542 58,49 L58,3 C58,1.34314575 56.6568542,0 55,0 L3,0 C1.34314575,0 2.22044605e-16,1.34314575 0,3 L0,49 C2.22044605e-16,50.6568542 1.34314575,52 3,52 L28,52" id="Shape" fill="#7D6599"/><rect id="Rectangle-path" fill="#ECF0F1" x="4" y="4" width="50" height="44"/><path d="M13,5 L12,5 C11.4477153,5 11,4.55228475 11,4 C11,3.44771525 11.4477153,3 12,3 L13,3 C13.5522847,3 14,3.44771525 14,4 C14,4.55228475 13.5522847,5 13,5 Z" id="Shape" fill="#3D324C"/><path d="M46,5 L17,5 C16.4477153,5 16,4.55228475 16,4 C16,3.44771525 16.4477153,3 17,3 L46,3 C46.5522847,3 47,3.44771525 47,4 C47,4.55228475 46.5522847,5 46,5 Z" id="Shape" fill="#3D324C"/><path d="M28,49 L12,49 C11.4477153,49 11,48.5522847 11,48 C11,47.4477153 11.4477153,47 12,47 L28,47 C28.5522847,47 29,47.4477153 29,48 C29,48.5522847 28.5522847,49 28,49 Z" id="Shape" fill="#3D324C"/><path d="M4,14 C3.44771525,14 3,13.5522847 3,13 L3,12 C3,11.4477153 3.44771525,11 4,11 C4.55228475,11 5,11.4477153 5,12 L5,13 C5,13.5522847 4.55228475,14 4,14 Z" id="Shape" fill="#3D324C"/><path d="M4,41 C3.44771525,41 3,40.5522847 3,40 L3,17 C3,16.4477153 3.44771525,16 4,16 C4.55228475,16 5,16.4477153 5,17 L5,40 C5,40.5522847 4.55228475,41 4,41 Z" id="Shape" fill="#3D324C"/><path d="M28,37 L34,37 L34,54 C34,54.5522847 33.5522847,55 33,55 L29,55 C28.4477153,55 28,54.5522847 28,54 L28,37 Z" id="Shape" fill="#2C3E50"/><path d="M34,37 L34,54 C34,54.5522847 33.5522847,55 33,55 L30,55 C30.5522847,55 31,54.5522847 31,54 L31,37 L34,37 Z" id="Shape" fill="#35495E"/><polygon id="Shape" fill="#BDC3C7" points="34 37 28 37 29 33 33 33"/><polygon id="Shape" fill="#D1D4D1" points="34 37 31 37 30 33 33 33"/><path d="M30,29 L32,29 C32.5522847,29 33,29.4477153 33,30 L33,33 L29,33 L29,30 C29,29.4477153 29.4477153,29 30,29 Z" id="Shape" fill="#FF5364"/><path d="M8,48 L8,52 L3,52 C1.34314575,52 2.22044605e-16,50.6568542 0,49 L0,44 L4,44 L4,47 C4,47.5522847 4.44771525,48 5,48 L8,48 Z" id="Shape" fill="#3D324C"/><path d="M8,-8.8817842e-16 L8,4 L5,4 C4.44771525,4 4,4.44771525 4,5 L4,8 L0,8 L0,3 C-4.4408921e-16,1.34314575 1.34314575,-8.8817842e-16 3,-8.8817842e-16 L8,-8.8817842e-16 Z" id="Shape" fill="#3D324C"/><rect id="Rectangle-path" fill="#B0D3F0" x="51" y="4" width="3" height="44"/><path d="M54,41 C53.4477153,41 53,40.5522847 53,40 L53,39 C53,38.4477153 53.4477153,38 54,38 C54.5522847,38 55,38.4477153 55,39 L55,40 C55,40.5522847 54.5522847,41 54,41 Z" id="Shape" fill="#3D324C"/><path d="M54,36 C53.4477153,36 53,35.5522847 53,35 L53,12 C53,11.4477153 53.4477153,11 54,11 C54.5522847,11 55,11.4477153 55,12 L55,35 C55,35.5522847 54.5522847,36 54,36 Z" id="Shape" fill="#3D324C"/><path d="M58,3 L58,8 L54,8 L54,5 C54,4.44771525 53.5522847,4 53,4 L50,4 L50,0 L55,0 C56.6568542,-8.8817842e-16 58,1.34314575 58,3 Z" id="Shape" fill="#3D324C"/><path d="M58,44 L58,49 C58,50.6568542 56.6568542,52 55,52 L50,52 L50,48 L53,48 C53.5522847,48 54,47.5522847 54,47 L54,44 L58,44 Z" id="Shape" fill="#3D324C"/><path d="M34,50 L34,54 C34,54.5522847 33.5522847,55 33,55 L29,55 C28.4477153,55 28,54.5522847 28,54 L28,50 L34,50 Z" id="Shape" fill="#DF4D60"/><path d="M34,50 L34,54 C34,54.5522847 33.5522847,55 33,55 L30,55 C30.5522847,55 31,54.5522847 31,54 L31,50 L34,50 Z" id="Shape" fill="#FF5364"/><path d="M34,37 L40,37 L40,54 C40,54.5522847 39.5522847,55 39,55 L35,55 C34.4477153,55 34,54.5522847 34,54 L34,37 Z" id="Shape" fill="#2C3E50"/><path d="M40,37 L40,54 C40,54.5522847 39.5522847,55 39,55 L36,55 C36.5522847,55 37,54.5522847 37,54 L37,37 L40,37 Z" id="Shape" fill="#35495E"/><polygon id="Shape" fill="#BDC3C7" points="40 37 34 37 35 33 39 33"/><polygon id="Shape" fill="#D1D4D1" points="40 37 37 37 36 33 39 33"/><path d="M36,29 L38,29 C38.5522847,29 39,29.4477153 39,30 L39,33 L35,33 L35,30 C35,29.4477153 35.4477153,29 36,29 Z" id="Shape" fill="#2FA8CC"/><path d="M40,50 L40,54 C40,54.5522847 39.5522847,55 39,55 L35,55 C34.4477153,55 34,54.5522847 34,54 L34,50 L40,50 Z" id="Shape" fill="#2980BA"/><path d="M40,50 L40,54 C40,54.5522847 39.5522847,55 39,55 L36,55 C36.5522847,55 37,54.5522847 37,54 L37,50 L40,50 Z" id="Shape" fill="#2FA8CC"/><path d="M40,37 L46,37 L46,54 C46,54.5522847 45.5522847,55 45,55 L41,55 C40.4477153,55 40,54.5522847 40,54 L40,37 Z" id="Shape" fill="#2C3E50"/><path d="M46,37 L46,54 C46,54.5522847 45.5522847,55 45,55 L42,55 C42.5522847,55 43,54.5522847 43,54 L43,37 L46,37 Z" id="Shape" fill="#35495E"/><polygon id="Shape" fill="#BDC3C7" points="46 37 40 37 41 33 45 33"/><polygon id="Shape" fill="#D1D4D1" points="46 37 43 37 42 33 45 33"/><path d="M42,29 L44,29 C44.5522847,29 45,29.4477153 45,30 L45,33 L41,33 L41,30 C41,29.4477153 41.4477153,29 42,29 Z" id="Shape" fill="#F0C419"/><path d="M46,50 L46,54 C46,54.5522847 45.5522847,55 45,55 L41,55 C40.4477153,55 40,54.5522847 40,54 L40,50 L46,50 Z" id="Shape" fill="#F29C1F"/><path d="M46,50 L46,54 C46,54.5522847 45.5522847,55 45,55 L42,55 C42.5522847,55 43,54.5522847 43,54 L43,50 L46,50 Z" id="Shape" fill="#F0C419"/></g></g></svg>
